<svg width="400" height="132" viewBox="0 0 400 132" fill="none" xmlns="http://www.w3.org/2000/svg">
<path d="M38.12 34.824V101H51.56V74.888H81V61.32H51.56V48.392H81.896V34.824H51.944H38.12ZM126.808 33.16C107.608 33.16 92.12 48.776 92.12 67.976C92.12 87.048 107.608 102.664 126.808 102.664C146.008 102.664 161.624 87.048 161.624 67.976C161.624 48.776 146.008 33.16 126.808 33.16ZM126.808 39.432C142.552 39.432 155.224 52.104 155.224 67.976C155.224 83.72 142.552 96.392 126.808 96.392C111.064 96.392 98.392 83.72 98.392 67.976C98.392 52.104 111.064 39.432 126.808 39.432ZM171.742 34.696V48.392H191.454V101H205.278V48.392H224.99V34.696H171.742ZM269.933 33.16C250.733 33.16 235.245 48.776 235.245 67.976C235.245 87.048 250.733 102.664 269.933 102.664C289.133 102.664 304.749 87.048 304.749 67.976C304.749 48.776 289.133 33.16 269.933 33.16ZM269.933 39.432C285.677 39.432 298.349 52.104 298.349 67.976C298.349 83.72 285.677 96.392 269.933 96.392C254.189 96.392 241.517 83.72 241.517 67.976C241.517 52.104 254.189 39.432 269.933 39.432ZM338.803 33.16C327.027 33.16 317.171 41.864 317.171 52.744C317.171 64.264 326.771 70.024 336.115 72.584C340.723 73.992 348.019 76.168 348.019 81.16C348.019 86.536 342.899 88.84 338.291 88.84C331.891 88.84 326.515 85.896 321.907 82.44L314.995 94.088C321.523 99.208 328.947 102.664 338.419 102.664C352.755 102.664 361.843 92.04 361.843 81.16V81.032C361.843 69.768 352.627 62.984 341.619 60.04C338.035 58.888 330.995 56.712 330.995 52.744C330.995 48.776 335.219 46.6 338.803 46.6C343.539 46.6 347.123 48.392 350.195 50.312L357.875 39.304C353.011 36.36 347.763 33.16 338.803 33.16Z" fill="url(#paint0_linear_9_49)"/>
<defs>
<linearGradient id="paint0_linear_9_49" x1="-1.39699e-07" y1="74" x2="400" y2="74" gradientUnits="userSpaceOnUse">
<stop stop-color="#B1007E"/>
<stop offset="1" stop-color="#5600C5"/>
</linearGradient>
</defs>
</svg>
